<svg viewBox="0 0 542 160" xmlns="http://www.w3.org/2000/svg" fill-rule="evenodd" clip-rule="evenodd" stroke-linejoin="round" stroke-miterlimit="1.4"><path d="M521 160H21c-11 0-20-9-20-20V20C1 9 10 0 21 0h500c11 0 20 9 20 20v120c0 11-9 20-20 20zm0-156.8H21C11.7 3.2 4.2 10.7 4.2 20v120c0 9.3 7.5 16.8 16.8 16.8h500c9.3 0 16.8-7.5 16.8-16.8V20c0-9.3-7.5-16.8-16.8-16.8zm-202 114c-1.7 2-4.9 3.8-9 3.8-8.5 0-16.3-7.4-16.3-17a17 17 0 0 1 16.4-17c4 0 7.2 1.8 9 3.8h.2V88h7v30.6c0 12.5-7.4 17.7-16.1 17.7-8.3 0-13.2-5.5-15.1-10l6.5-2.8c1.2 2.8 4 6.1 8.6 6.1 5.6 0 9-3.5 9-10v-2.4h-.2zm164.8 18H476l7.6-16.9L470.2 88h8l9 21.7h.2L496 88h8.3l-20.5 47.2zM273.5 87c-9.4 0-17 7.2-17 17s7.6 17 17 17c9.5 0 17.1-7.2 17.1-17s-7.6-17-17-17zm-57.2 5.2c.2 1.3.4 2.9.4 4.5 0 5.4-1.5 12.1-6.3 17A24.2 24.2 0 0 1 192 121a26.8 26.8 0 0 1-26.8-26.4A26.8 26.8 0 0 1 192 68.2c8 0 13.8 3.1 18 7.3l-5 5a19 19 0 0 0-32 14 19 19 0 0 0 19 19.3c6.9 0 10.8-2.8 13.3-5.3 2-2 3.4-5 4-9H192v-7.3h24.3zm20-5.2c-9.4 0-17 7.2-17 17s7.6 17 17 17 17-7.2 17-17-7.6-17-17-17zm137 10.8C371.7 94 367.4 87 358.5 87c-8.7 0-16 6.9-16 17 0 9.6 7.2 17 16.9 17a17 17 0 0 0 14.2-7.5l-5.8-3.9a9.7 9.7 0 0 1-8.4 4.7 8.7 8.7 0 0 1-8.3-5.1l22.8-9.4-.8-2zM454.4 87c-5.4 0-11 2.4-13.3 7.7l6.7 2.7c1.4-2.7 4-3.6 6.8-3.6 3.8 0 7.8 2.3 7.8 6.4v.5c-1.3-.8-4.2-2-7.8-2-7.1 0-14.4 4-14.4 11.3 0 6.7 5.9 11 12.4 11 5 0 7.8-2.2 9.6-4.8h.2v3.8h7.2v-19.2c0-8.8-6.6-13.8-15.2-13.8zM436.2 120h-7.5V70h7.5v50zm-97.2 0h-7.5V70h7.5v50zm69.2-50c8.3 0 16.4 6 16.4 15.5 0 9.6-8.1 15.6-16.4 15.6h-10.4V120h-7.5V70h18zm-134.7 44.3c-5.1 0-9.6-4.2-9.6-10.3 0-6.1 4.5-10.3 9.6-10.3 5.2 0 9.6 4.2 9.6 10.3 0 6-4.4 10.3-9.6 10.3zm37.2 0c-5.2 0-9.5-4.3-9.5-10.2 0-6 4.3-10.4 9.5-10.4 5 0 9 4.4 9 10.4s-4 10.2-9 10.2zm-74.4 0c-5.2 0-9.6-4.2-9.6-10.3 0-6.1 4.4-10.3 9.6-10.3 5.1 0 9.6 4.2 9.6 10.3 0 6-4.5 10.3-9.6 10.3zm217.3 0c-2.4 0-5.8-1.2-5.8-4.2 0-3.9 4.2-5.4 7.9-5.4 3.3 0 4.8.7 6.8 1.7a9 9 0 0 1-8.9 8zM350 103.5c-.2-6.6 5.1-10 8.9-10 3 0 5.5 1.6 6.3 3.7l-15.2 6.3zm58.4-9.4c5.6 0 8.8-4.7 8.8-8.6 0-4-3.2-8.5-8.8-8.5h-10.6v17h10.6zM171.5 27.6h16.8v21h2.7v8.9h-3.7v-5.1h-17.4v5H166v-8.8h2.6c1.8-1.6 2.8-4.4 2.8-8.5V27.6zm102.6 13.3l5.6-13.3h4.5l-9.3 20.8c-1.3 3-3.3 4.5-6 4.5-.8 0-1.6-.2-2.5-.5l-.4-.2.1-.3 1-3.4.4.3c.5.3 1 .4 1.4.4.7 0 1.2-.1 1.5-.4.3-.2.6-.6 1-1.3l.7-1.8-8.2-18.1h4.5l5.7 13.3zm79.3 8.4a12.2 12.2 0 0 1-9 3.6c-3.6 0-6.6-1.2-9-3.7a12.7 12.7 0 0 1-3.7-9.2 12.7 12.7 0 0 1 12.7-13 12.7 12.7 0 0 1 12.7 13c0 3.6-1.2 6.7-3.6 9.2h-.1zM205.9 27a12.7 12.7 0 0 1 12.7 13c0 3.5-1.2 6.5-3.6 9a12.2 12.2 0 0 1-9.1 3.8c-3.6 0-6.7-1.2-9.1-3.7A12.7 12.7 0 0 1 193 40 12.7 12.7 0 0 1 206 27zm21.5 19.5a8.7 8.7 0 0 0 6.3 2.6 9 9 0 0 0 7-3.4l.4-.3.3.3 2.4 2.4-.3.3a13 13 0 0 1-9.8 4.4h-.2a12.6 12.6 0 0 1-12.7-13 12.6 12.6 0 0 1 13-12.8c3.6 0 6.7 1.3 9 4l.3.3-.3.3-2.5 2.4-.2-.4a7.7 7.7 0 0 0-6.4-2.9c-2.5 0-4.6.9-6.3 2.5a8.9 8.9 0 0 0-2.6 6.7c0 2.8.9 5 2.6 6.6zm150.7-19c2 0 3.7.7 5.1 2a6.4 6.4 0 0 1 1.2 8.2c-.5.7-1 1.3-1.8 1.8 1 .4 1.7 1 2.4 1.9.8 1 1.2 2.3 1.2 3.7 0 2-.8 3.8-2.3 5.1a7.8 7.8 0 0 1-5.4 2.1H369V27.6h9zm-115.3 3.7h-6.7v21.1h-3.9v-21h-6.7v-3.8h17.3v3.7zm42 21.1H301v-21h-10.4v21h-4V27.6h18.2v24.8zm8.6 0h-3.9V27.6h4v10.3h11.1V27.6h3.9v24.8h-3.9V41.6h-11.2v10.8zm-113.7-5.7a8.4 8.4 0 0 0 6.2 2.5c2.4 0 4.5-.9 6.2-2.6a9 9 0 0 0 2.5-6.6 9 9 0 0 0-2.5-6.6 8.4 8.4 0 0 0-6.2-2.6c-2.5 0-4.6.9-6.3 2.6a9 9 0 0 0-2.5 6.6 9 9 0 0 0 2.5 6.6h.1zm138.6 0a8.4 8.4 0 0 0 6.1 2.5c2.5 0 4.6-.9 6.3-2.6a9 9 0 0 0 2.5-6.6 9 9 0 0 0-2.5-6.6 8.4 8.4 0 0 0-6.3-2.6c-2.4 0-4.5.9-6.2 2.6a9 9 0 0 0-2.6 6.6 9 9 0 0 0 2.6 6.6zm40.4 2c1 0 1.9-.4 2.5-1.2.7-.7 1-1.5 1-2.4 0-.9-.3-1.7-1-2.4-.7-.8-1.5-1.1-2.7-1.1H373v7h5.8zm-194.3 0V31.2h-9v8.9c0 3.4-.7 6.2-2 8.4h11zm193.7-10.8c1 0 1.8-.4 2.5-1 .6-.8 1-1.5 1-2.3 0-.8-.4-1.5-1-2.2a3 3 0 0 0-2.4-1h-5.3v6.5h5.2zm-94.5-9.5V28l-.4-.2v.2h.4l-.2.4h.2z" fill="#000"/><path d="M20.5 42.4a2 2 0 0 1-.5-1.5v.2-22.2.2c0-.7.2-1.2.5-1.5L33 30 20.5 42.4zM20 18.9zm0-.1zm0 0z" fill="url(#_Linear1)" transform="matrix(4 0 0 4 -39 -40)"/><path d="M37 34.3h.1l5-2.9-5 2.8zm0-.2L33 30l4.1-4.1 5 2.8c.6.4 1 .8 1 1.3s-.4 1-1 1.3l-5 2.8z" fill="url(#_Linear2)" transform="matrix(4 0 0 4 -39 -40)"/><path d="M21.4 42.9c-.4 0-.7-.2-.9-.4a1.3 1.3 0 0 0 .9.4zm0-.2c-.4 0-.7-.1-.9-.3L33 30l4.1 4.1-14.5 8.3-1.1.3zm-.9-.2z" fill="url(#_Linear3)" transform="matrix(4 0 0 4 -39 -40)"/><path d="M32.9 30L20.5 17.6c.2-.2.5-.3.9-.3.3 0 .7 0 1.1.3L37 26 33 30zm4.2-4.2l-14.6-8.3c-.4-.3-.8-.4-1.1-.4.3 0 .7.1 1.1.4l14.6 8.3z" fill="url(#_Linear4)" transform="matrix(4 0 0 4 -39 -40)"/><path d="M47 131.4c1.2 0 2.6-.5 4-1.3l58.1-33-58 33a9.5 9.5 0 0 1-4.2 1.3zm-4-1.3zm-.2-.2z" fill-rule="nonzero"/><path d="M37 34.3h.1z" fill="url(#_Linear5)" transform="matrix(4 0 0 4 -39 -40)"/><path d="M21.4 42.9c-.4 0-.7-.2-.9-.4v-.1c.2.2.5.3.9.3.3 0 .7 0 1.1-.3L37 34l.1.1-14.6 8.3a2.4 2.4 0 0 1-1.1.4z" fill="url(#_Linear6)" transform="matrix(4 0 0 4 -39 -40)"/><path d="M42.7 129.9a8 8 0 0 0 0 0z" fill-rule="nonzero"/><path d="M20.4 42.5A2 2 0 0 1 20 41v-.2c0 .6.1 1.1.4 1.4h.1v.2z" fill="url(#_Linear7)" transform="matrix(4 0 0 4 -39 -40)"/><path d="M20.4 42.5l.1-.1z" fill="url(#_Linear8)" transform="matrix(4 0 0 4 -39 -40)"/><path d="M132.8 82a5 5 0 0 1 0 0z" fill-rule="nonzero"/><path d="M37.1 34.2l5-2.9c.5-.4.9-.8 1-1.3 0 .2 0 .4-.2.5-.1.4-.4.7-.9 1l-4.9 2.7z" fill="url(#_Linear9)" transform="matrix(4 0 0 4 -39 -40)"/><path d="M133.3 80c0-2-1.4-4.2-4.2-5.8l-19.6-11V63L129 74.2c2.8 1.6 4.2 3.7 4.2 5.8z" fill="#404040" fill-rule="nonzero"/><path d="M43 30c0-.5-.4-1-1-1.3l-5-2.8.1-.1 5 2.8c.6.4 1 .9 1 1.4z" fill="url(#_Linear10)" transform="matrix(4 0 0 4 -39 -40)"/><path d="M40.9 35.7zm0-.6zm0 0zm0 0c.2-4.2 2.5-6.5 5.6-6.5-1.3 0-2.5.4-3.5 1.3l-.3.2a7.6 7.6 0 0 0-1.8 5z" fill="#404040" fill-rule="nonzero"/><path d="M20 19v-.2c0-.6.2-1 .4-1.3l.1.1c-.3.3-.5.8-.5 1.5zm.5-1.5z" fill="url(#_Linear11)" transform="matrix(4 0 0 4 -39 -40)"/><path d="M46.5 28.6z" fill="#404040" fill-rule="nonzero"/><path d="M37 25.9l-14.5-8.3-1.1-.3c-.4 0-.7.1-.9.3v-.1c.2-.2.5-.4.9-.4.3 0 .7.1 1.1.4l14.6 8.3z" fill="url(#_Linear12)" transform="matrix(4 0 0 4 -39 -40)"/><defs><linearGradient id="_Linear1" x2="1" gradientUnits="userSpaceOnUse" gradientTransform="scale(-23.734 23.734) rotate(-45 .3 2)"><stop offset="0" stop-color="#00a0ff"/><stop offset="1" stop-color="#00e2ff"/></linearGradient><linearGradient id="_Linear2" x2="1" gradientUnits="userSpaceOnUse" gradientTransform="matrix(-24.197 0 0 24.197 43.8 30)"><stop offset="0" stop-color="#ffdf00"/><stop offset="1" stop-color="#ff9c00"/></linearGradient><linearGradient id="_Linear3" x2="1" gradientUnits="userSpaceOnUse" gradientTransform="scale(-32.1851 32.1851) rotate(-45 .7 1.8)"><stop offset="0" stop-color="#ff3a44"/><stop offset="1" stop-color="#c31162"/></linearGradient><linearGradient id="_Linear4" x2="1" gradientUnits="userSpaceOnUse" gradientTransform="scale(14.372 -14.372) rotate(45 1.5 1.1)"><stop offset="0" stop-color="#31a070"/><stop offset="1" stop-color="#00ef75"/></linearGradient><linearGradient id="_Linear5" x2="1" gradientUnits="userSpaceOnUse" gradientTransform="matrix(-24.197 0 0 24.197 43.8 30)"><stop offset="0" stop-color="#ccb300"/><stop offset="1" stop-color="#cc7c00"/></linearGradient><linearGradient id="_Linear6" x2="1" gradientUnits="userSpaceOnUse" gradientTransform="scale(-32.1851 32.1851) rotate(-45 .7 1.8)"><stop offset="0" stop-color="#cc2d36"/><stop offset="1" stop-color="#9c0e4d"/></linearGradient><linearGradient id="_Linear7" x2="1" gradientUnits="userSpaceOnUse" gradientTransform="scale(-23.734 23.734) rotate(-45 .3 2)"><stop offset="0" stop-color="#008cdf"/><stop offset="1" stop-color="#00c6df"/></linearGradient><linearGradient id="_Linear8" x2="1" gradientUnits="userSpaceOnUse" gradientTransform="scale(-32.1851 32.1851) rotate(-45 .7 1.8)"><stop offset="0" stop-color="#df333b"/><stop offset="1" stop-color="#aa0e56"/></linearGradient><linearGradient id="_Linear9" x2="1" gradientUnits="userSpaceOnUse" gradientTransform="matrix(-24.197 0 0 24.197 43.8 30)"><stop offset="0" stop-color="#dfc400"/><stop offset="1" stop-color="#df8900"/></linearGradient><linearGradient id="_Linear10" x2="1" gradientUnits="userSpaceOnUse" gradientTransform="matrix(-24.197 0 0 24.197 43.8 30)"><stop offset="0" stop-color="#ffe83f"/><stop offset="1" stop-color="#ffb53f"/></linearGradient><linearGradient id="_Linear11" x2="1" gradientUnits="userSpaceOnUse" gradientTransform="scale(-23.734 23.734) rotate(-45 .3 2)"><stop offset="0" stop-color="#3fb8ff"/><stop offset="1" stop-color="#3fe9ff"/></linearGradient><linearGradient id="_Linear12" x2="1" gradientUnits="userSpaceOnUse" gradientTransform="scale(14.372 -14.372) rotate(45 1.5 1.1)"><stop offset="0" stop-color="#64b895"/><stop offset="1" stop-color="#3ff497"/></linearGradient></defs></svg>