<svg viewBox="0 0 480 160" xmlns="http://www.w3.org/2000/svg" fill-rule="evenodd" clip-rule="evenodd" stroke-linejoin="round" stroke-miterlimit="1.4"><path d="M441.2 160H30.8c-2.7-.1-5.4-.3-8-.8A26.7 26.7 0 0 1 8.7 152a24.8 24.8 0 0 1-7.2-14c-.5-2.7-.7-5.4-.7-8l-.1-3.8V33.8 30c.1-2.7.3-5.4.8-8A26.4 26.4 0 0 1 8.7 8a25.6 25.6 0 0 1 14-7.2 53 53 0 0 1 8-.7h3.8l4.3-.1H449.3c2.6.1 5.3.3 8 .8a27 27 0 0 1 14 7.2 25.8 25.8 0 0 1 7.3 14 54.3 54.3 0 0 1 .7 11.8v96.1c0 2.7-.2 5.4-.7 8a26.2 26.2 0 0 1-7.2 14.1 25.3 25.3 0 0 1-14.1 7.2 53.4 53.4 0 0 1-11.7.8h-4.4zm-406.7-3.5h-3.6c-2.3-.1-5-.2-7.5-.7a23.6 23.6 0 0 1-12.2-6.3 21.3 21.3 0 0 1-6.3-12.2c-.5-2.7-.6-5.4-.7-7.5v-96-3.6c.1-2.1.2-4.8.7-7.5a23 23 0 0 1 6.2-12.2 22.3 22.3 0 0 1 12.3-6.3 50 50 0 0 1 7.5-.6l3.6-.1h414.7c2 .1 4.8.2 7.4.7a22 22 0 0 1 18.5 18.5c.5 2.5.6 5 .7 7.5V130c0 2.3-.2 5-.7 7.4a23 23 0 0 1-6.2 12.2 21.9 21.9 0 0 1-12.3 6.3 50.5 50.5 0 0 1-11 .7H34.5zM194.7 134h-7.5V85.8h7.2v6h.2c2-3.9 6.4-6.4 11.5-6.4 9.2 0 15.2 7.3 15.2 18.5s-6 18.5-15 18.5c-5.2 0-9.3-2.3-11.5-6.4h-.1v18zm39.8 0h-7.4V85.8h7.2v6h.1c2-3.9 6.5-6.4 11.5-6.4 9.2 0 15.3 7.3 15.3 18.5s-6 18.5-15.1 18.5c-5.2 0-9.3-2.3-11.4-6.4h-.2v18zm82.7-48h-7.5c-.4-5-4.5-8-10.5-8s-10 3-10 7.4c0 3.5 2.5 5.6 9 7.2l5.4 1.3c10.2 2.4 14.4 6.5 14.4 13.8 0 9.3-7.4 15.1-19.1 15.1-11 0-18.5-5.7-19-14.7h7.6c.6 5 5.4 8.2 12 8.2 6.2 0 10.7-3.2 10.7-7.7 0-3.8-2.7-6.1-9.2-7.7l-6.4-1.6c-9.1-2.2-13.4-6.4-13.4-13.4 0-8.5 7.5-14.4 18.1-14.4 10.5 0 17.7 5.9 18 14.4zm95.9 19.7v.5c0 6.2 3.9 10.2 9.7 10.2 4.1 0 7.4-2 8.4-5h7c-1 6.5-7.4 11-15.6 11-10.5 0-17-7-17-18.3 0-11.4 6.5-18.8 16.7-18.8 10 0 16.4 7 16.4 17.9v2.5H413zM345 104c0-11.4 6.7-18.6 17.1-18.6 10.5 0 17.2 7.2 17.2 18.6 0 11.4-6.6 18.5-17.2 18.5-10.5 0-17.1-7-17.1-18.5zm-11-18.1h7v5.9h-7v20c0 3 1.5 4.5 4.5 4.5l2.4-.2v5.8c-.8.3-2.4.4-4.1.4-7.3 0-10.2-2.8-10.2-9.8V91.7h-5.3v-6h5.3v-8.5h7.5v8.6zM99.9 81.2c-.1-11 9-16.4 9.4-16.6a20.3 20.3 0 0 0-16-8.6c-6.7-.7-13.2 4-16.6 4-3.5 0-8.8-4-14.5-3.8-7.3 0-14 4.3-17.8 10.9-7.8 13.4-2 33 5.4 43.9 3.7 5.3 8 11.2 13.7 11 5.6-.2 7.6-3.6 14.3-3.6 6.7 0 8.6 3.6 14.4 3.4 6 0 9.7-5.3 13.3-10.6 4.3-6.1 6-12 6-12.4 0 0-11.5-4.4-11.6-17.6zm82.8 40.8h-8.1l-4.6-13.4h-19l-4.5 13.4h-8l18-49.7h8.3l18 49.7zm210.3 0h-7.5V85.8h7.1v6.1h.2a8.6 8.6 0 0 1 8.7-6.5c1 0 2 .1 2.6.3v7c-.6-.3-2-.5-3.4-.5-4.8 0-7.7 3.2-7.7 8.3V122zm-21.2-18.1c0-7.8-3.5-12.4-9.6-12.4-6 0-9.6 4.6-9.6 12.4 0 7.8 3.6 12.4 9.6 12.4s9.6-4.6 9.6-12.4zm-118.1 0c0-7.4-3.8-12.2-9.6-12.2-5.7 0-9.5 5-9.5 12.2 0 7.3 3.8 12.2 9.5 12.2 5.8 0 9.6-4.8 9.6-12.2zm-39.9 0c0-7.4-3.8-12.2-9.6-12.2-5.7 0-9.5 5-9.5 12.2 0 7.3 3.8 12.2 9.5 12.2 5.8 0 9.6-4.8 9.6-12.2zm-53.2-23.3h-.2l-7.4 21.8h15l-7.4-21.8zm252.6 20h18.1c-.2-5.6-3.7-9.3-8.9-9.3-5.1 0-8.8 3.8-9.2 9.2zm-190-35.4v-3h1.2c1.7 0 2.7-.6 3.3-2.5l.2-.8-6.5-18.1h3.9l4.5 14.3h.3l4.5-14.3h3.8l-6.8 18.7c-1.5 4.4-3.2 5.8-6.9 5.8h-1.4zm-18-.4h-3.5v-24h3.4v3h.3c1-2 3.2-3.3 5.6-3.3 4.6 0 7.5 3.6 7.5 9.3 0 5.7-2.9 9.3-7.4 9.3-2.6 0-4.6-1.1-5.6-3h-.2v8.7zm-59-23.5h-3.5c.2-4.3 3.4-7 8.4-7 4.7 0 8 2.7 8 6.5 0 2.6-1.8 4.8-4.3 5.4v.3c3 .3 5.3 2.5 5.3 5.8 0 4-3.9 7-9 7s-8.7-2.7-9-7h3.7c.2 2.3 2.3 3.8 5.4 3.8 3 0 5-1.7 5-4 0-2.4-1.8-3.8-5.2-3.8h-3.2V45h3.1c2.7 0 4.5-1.5 4.5-3.8 0-2.2-1.6-3.6-4.4-3.6-2.8 0-4.6 1.4-4.8 3.7zm156.5 9.5v.2c.2 3.1 2 5.1 4.8 5.1 2.2 0 3.7-.8 4.3-2.2h3.4c-.8 3.3-3.6 5.2-7.8 5.2-5.1 0-8.3-3.5-8.3-9.3 0-5.7 3.2-9.4 8.3-9.4 5 0 8 3.5 8 9.1v1.3h-12.7zm-57.8-5h-3.5c.4-3.3 3-5.4 7.1-5.4 4.3 0 6.8 2 6.8 5 0 1.8-1.2 3.3-2.9 3.7v.3c2.4.5 3.5 2 3.5 4 0 3.5-2.9 5.7-7.3 5.7-4 0-7.1-1.8-7.5-5.4h3.6c.3 1.6 1.8 2.4 3.9 2.4 2.3 0 3.8-1 3.8-2.7 0-1.7-1.3-2.5-3.8-2.5h-2.7V48h2.6c2.2 0 3.3-.8 3.3-2.3 0-1.3-1-2.4-3.3-2.4-2 0-3.4.9-3.6 2.3zm-76.6-.3h-3.5c.4-3 3.3-5 7.4-5 4.5 0 7 2.2 7 6v12.3h-3.4v-2.5h-.3A6 6 0 0 1 170 59c-3.5 0-6-2.1-6-5.4 0-3.2 2.4-5.1 6.7-5.4l4.9-.3v-1.5c0-2-1.3-3-3.7-3-2 0-3.4.7-3.7 2zm28.7-1.7h-8.3v15H185v-18H197v3zm67.6 15H261v-18h3.5v12.4h.3l8.3-12.4h3.5v18H273V46.3h-.3l-8.3 12.5zm74 0h-8.3v-18h8.1c3.6 0 5.6 1.8 5.6 4.6 0 1.8-1.3 3.4-3 3.8v.2c2.3.3 3.8 2 3.8 4.2 0 3.1-2.3 5.2-6.3 5.2zm-42.5-15h-5.7v15h-3.5v-15H281v-3H296v3zm-120.4 8.4v-1.5l-4.4.2c-2.5.2-3.6 1-3.6 2.6 0 1.7 1.4 2.6 3.3 2.6 2.7 0 4.7-1.7 4.7-4zm162-1.4h-3.9V56h4.3c2 0 3.2-1 3.2-2.7 0-1.8-1.3-2.6-3.7-2.6zm-122.8-1c0-3.8-1.8-6.1-4.9-6.1-3 0-4.8 2.3-4.8 6.1 0 3.7 1.9 6.1 4.8 6.1 3 0 4.9-2.3 4.9-6.1zm-126-1c3-3.7 5-8.8 4.5-14-4.3.3-9.7 3-12.8 6.7A18.6 18.6 0 0 0 75.9 55c4.9.3 9.8-2.5 13-6.2zm248.9-5.3h-4v4.7h3.6c2.1 0 3.1-.9 3.1-2.4 0-1.4-.9-2.3-2.7-2.3zm-35 4.6h9c0-2.8-1.8-4.6-4.4-4.6-2.6 0-4.5 1.8-4.7 4.6z" fill="#000"/></svg>