<svg width="32" height="32" viewBox="0 0 32 32" fill="none" xmlns="http://www.w3.org/2000/svg">
<circle cx="16" cy="16" r="16" fill="#C00A27"/>
<path d="M22.8567 19.4107V21.4752C22.8575 21.6669 22.8181 21.8566 22.7412 22.0322C22.6643 22.2078 22.5514 22.3654 22.4099 22.495C22.2684 22.6246 22.1013 22.7232 21.9194 22.7846C21.7375 22.846 21.5447 22.8688 21.3535 22.8516C19.2316 22.6215 17.1934 21.8979 15.4026 20.7389C13.7366 19.6823 12.324 18.2725 11.2653 16.6098C10.1 14.8144 9.37476 12.7704 9.14842 10.6432C9.13119 10.4529 9.15385 10.2611 9.21496 10.08C9.27607 9.89891 9.3743 9.73251 9.50338 9.59139C9.63246 9.45026 9.78957 9.33751 9.9647 9.2603C10.1398 9.18309 10.3292 9.14313 10.5206 9.14295H12.5893C12.9239 9.13966 13.2483 9.25793 13.5021 9.47571C13.7558 9.69349 13.9215 9.99592 13.9684 10.3266C14.0557 10.9873 14.2176 11.6361 14.4511 12.2604C14.5438 12.5067 14.5639 12.7744 14.5089 13.0318C14.4539 13.2892 14.3262 13.5254 14.1408 13.7125L13.265 14.5865C14.2466 16.3094 15.676 17.7359 17.4023 18.7156L18.2781 17.8416C18.4655 17.6566 18.7022 17.5291 18.9601 17.4742C19.218 17.4193 19.4862 17.4393 19.733 17.5319C20.3586 17.7649 21.0086 17.9265 21.6707 18.0136C22.0056 18.0608 22.3115 18.2292 22.5302 18.4868C22.7489 18.7443 22.8651 19.0732 22.8567 19.4107Z" stroke="white" stroke-width="2" stroke-linecap="round" stroke-linejoin="round"/>
</svg>
