<svg width="32" height="32" viewBox="0 0 32 32" fill="none" xmlns="http://www.w3.org/2000/svg">
<circle opacity="0.5" cx="16" cy="16" r="16" fill="black"/>
<path d="M16.7929 9.79289C17.1834 9.40237 17.8166 9.40237 18.2071 9.79289C18.5976 10.1834 18.5976 10.8166 18.2071 11.2071L16.7929 9.79289ZM12 16L11.2929 16.7071C10.9024 16.3166 10.9024 15.6834 11.2929 15.2929L12 16ZM18.2071 20.7929C18.5976 21.1834 18.5976 21.8166 18.2071 22.2071C17.8166 22.5976 17.1834 22.5976 16.7929 22.2071L18.2071 20.7929ZM18.2071 11.2071L12.7071 16.7071L11.2929 15.2929L16.7929 9.79289L18.2071 11.2071ZM12.7071 15.2929L18.2071 20.7929L16.7929 22.2071L11.2929 16.7071L12.7071 15.2929Z" fill="white"/>
</svg>
