<svg width="32" height="32" viewBox="0 0 32 32" fill="none" xmlns="http://www.w3.org/2000/svg">
<circle opacity="0.5" r="16" transform="matrix(-1 0 0 1 16 16)" fill="black"/>
<path d="M15.2071 9.79289C14.8166 9.40237 14.1834 9.40237 13.7929 9.79289C13.4024 10.1834 13.4024 10.8166 13.7929 11.2071L15.2071 9.79289ZM20 16L20.7071 16.7071C21.0976 16.3166 21.0976 15.6834 20.7071 15.2929L20 16ZM13.7929 20.7929C13.4024 21.1834 13.4024 21.8166 13.7929 22.2071C14.1834 22.5976 14.8166 22.5976 15.2071 22.2071L13.7929 20.7929ZM13.7929 11.2071L19.2929 16.7071L20.7071 15.2929L15.2071 9.79289L13.7929 11.2071ZM19.2929 15.2929L13.7929 20.7929L15.2071 22.2071L20.7071 16.7071L19.2929 15.2929Z" fill="white"/>
</svg>
