<svg width="16" height="16" viewBox="0 0 16 16" fill="none" xmlns="http://www.w3.org/2000/svg">
<rect x="0.5" y="0.5" width="15" height="15" rx="7.5" stroke="#E4E4E4"/>
<path d="M5.5 11C5.22386 11 5 11.2239 5 11.5C5 11.7761 5.22386 12 5.5 12L5.5 11ZM5.5 6.5L5.14645 6.14645C4.95118 6.34171 4.95118 6.65829 5.14645 6.85355L5.5 6.5ZM7.85355 4.85355C8.04882 4.65829 8.04882 4.34171 7.85355 4.14645C7.65829 3.95118 7.34171 3.95118 7.14645 4.14645L7.85355 4.85355ZM7.14645 8.85355C7.34171 9.04882 7.65829 9.04882 7.85355 8.85355C8.04882 8.65829 8.04882 8.34171 7.85355 8.14645L7.14645 8.85355ZM9 11L5.5 11L5.5 12L9 12L9 11ZM9 6L5.5 6L5.5 7L9 7V6ZM5.85355 6.85355L7.85355 4.85355L7.14645 4.14645L5.14645 6.14645L5.85355 6.85355ZM5.14645 6.85355L7.14645 8.85355L7.85355 8.14645L5.85355 6.14645L5.14645 6.85355ZM12 9C12 7.34315 10.6569 6 9 6V7C10.1046 7 11 7.89543 11 9L12 9ZM9 12C10.6569 12 12 10.6569 12 9L11 9C11 10.1046 10.1046 11 9 11L9 12Z" fill="#EF762C"/>
</svg>
