<svg width="10" height="6" viewBox="0 0 10 6" fill="none" xmlns="http://www.w3.org/2000/svg">
<path d="M5 1L4.29289 0.292894C4.68342 -0.0976308 5.31658 -0.0976308 5.70711 0.292894L5 1ZM9.70711 4.29289C10.0976 4.68342 10.0976 5.31658 9.70711 5.70711C9.31658 6.09763 8.68342 6.09763 8.29289 5.70711L9.70711 4.29289ZM1.70711 5.70711C1.31658 6.09763 0.683417 6.09763 0.292893 5.70711C-0.0976314 5.31658 -0.0976315 4.68342 0.292893 4.29289L1.70711 5.70711ZM5.70711 0.292894L9.70711 4.29289L8.29289 5.70711L4.29289 1.70711L5.70711 0.292894ZM5.70711 1.70711L1.70711 5.70711L0.292893 4.29289L4.29289 0.292894L5.70711 1.70711Z" fill="#262626"/>
</svg>
